<svg xmlns="http://www.w3.org/2000/svg" viewBox="0 0 1920 1080" preserveAspectRatio="xMidYMid slice" role="img"><defs><linearGradient id="sky" x1="0" y1="0" x2="0" y2="1"><stop offset="0" stop-color="#C9A968"/><stop offset="0.5" stop-color="#254A55"/><stop offset="1" stop-color="#1D2B24"/></linearGradient><radialGradient id="sun" cx="0.72" cy="0.3" r="0.7"><stop offset="0" stop-color="#B08A4A" stop-opacity="0.8"/><stop offset="1" stop-color="#B08A4A" stop-opacity="0"/></radialGradient><filter id="grain"><feTurbulence type="fractalNoise" baseFrequency="0.85" numOctaves="2" stitchTiles="stitch"/><feColorMatrix type="saturate" values="0"/><feComponentTransfer><feFuncA type="linear" slope="0.05"/></feComponentTransfer><feComposite operator="over" in2="SourceGraphic"/></filter><filter id="soft2"><feGaussianBlur stdDeviation="26"/></filter><filter id="soft"><feGaussianBlur stdDeviation="7"/></filter></defs><rect width="1920" height="1080" fill="url(#sky)"/><rect width="1920" height="1080" fill="url(#sun)"/><rect y="558" width="1920" height="120" fill="#254A55" opacity="0.5" filter="url(#soft2)"/><rect y="648" width="1920" height="432" fill="#1D2B24" opacity="0.92"/><rect x="568.6964922356096" y="653" width="557" height="2.5" fill="#B08A4A" opacity="0.09" filter="url(#soft)"/><rect x="441.581993441114" y="671" width="1170" height="2.5" fill="#B08A4A" opacity="0.12" filter="url(#soft)"/><rect x="364.08104018450274" y="688" width="1081" height="2.5" fill="#B08A4A" opacity="0.10" filter="url(#soft)"/><rect x="236.11909212322283" y="706" width="1223" height="2.5" fill="#B08A4A" opacity="0.20" filter="url(#soft)"/><rect x="326.5062284575925" y="731" width="945" height="2.5" fill="#B08A4A" opacity="0.11" filter="url(#soft)"/><rect x="16.466914254491407" y="742" width="965" height="2.5" fill="#B08A4A" opacity="0.12" filter="url(#soft)"/><rect x="535.0736746969725" y="765" width="1026" height="2.5" fill="#B08A4A" opacity="0.15" filter="url(#soft)"/><rect x="14.314847484469318" y="783" width="825" height="2.5" fill="#B08A4A" opacity="0.10" filter="url(#soft)"/><rect x="599.2101409155312" y="805" width="1174" height="2.5" fill="#B08A4A" opacity="0.10" filter="url(#soft)"/><rect x="478.05595285298375" y="829" width="1234" height="2.5" fill="#B08A4A" opacity="0.19" filter="url(#soft)"/><rect x="473.84858247705796" y="847" width="854" height="2.5" fill="#B08A4A" opacity="0.20" filter="url(#soft)"/><rect x="96.71079198241132" y="869" width="1254" height="2.5" fill="#B08A4A" opacity="0.17" filter="url(#soft)"/><rect x="318.213429674067" y="883" width="990" height="2.5" fill="#B08A4A" opacity="0.19" filter="url(#soft)"/><rect x="498.9146938750874" y="903" width="854" height="2.5" fill="#B08A4A" opacity="0.19" filter="url(#soft)"/><rect x="276.6072989289826" y="927" width="1068" height="2.5" fill="#B08A4A" opacity="0.19" filter="url(#soft)"/><rect x="291.965132916951" y="945" width="722" height="2.5" fill="#B08A4A" opacity="0.12" filter="url(#soft)"/><rect x="99.6418112964757" y="964" width="1408" height="2.5" fill="#B08A4A" opacity="0.11" filter="url(#soft)"/><rect x="185.73787496967643" y="986" width="1457" height="2.5" fill="#B08A4A" opacity="0.16" filter="url(#soft)"/><rect x="310.64865368913127" y="1001" width="1151" height="2.5" fill="#B08A4A" opacity="0.15" filter="url(#soft)"/><rect x="124.69108472275634" y="1019" width="1012" height="2.5" fill="#B08A4A" opacity="0.19" filter="url(#soft)"/><rect x="45.22522144442724" y="1042" width="1320" height="2.5" fill="#B08A4A" opacity="0.17" filter="url(#soft)"/><rect x="114.8416399824705" y="1064" width="1245" height="2.5" fill="#B08A4A" opacity="0.09" filter="url(#soft)"/><path d="M 263.58316656224156 334.98799535813987 q 33.649553340001574 -23.554687338001102 67.29910668000315 0 q 33.649553340001574 -23.554687338001102 67.29910668000315 0" fill="none" stroke="#F2EBDD" stroke-width="2.4" opacity="0.7"/><path d="M 1390.5932503800525 373.63826075280735 q 22.729997911146732 -15.910998537802712 45.459995822293465 0 q 22.729997911146732 -15.910998537802712 45.459995822293465 0" fill="none" stroke="#F2EBDD" stroke-width="2.4" opacity="0.7"/><path d="M 545.5935636034724 390.3600088090434 q 38.87161923655596 -27.21013346558917 77.74323847311192 0 q 38.87161923655596 -27.21013346558917 77.74323847311192 0" fill="none" stroke="#F2EBDD" stroke-width="2.4" opacity="0.7"/><path d="M 278.5002667441437 407.7571665998545 q 35.188181405048525 -24.631726983533966 70.37636281009705 0 q 35.188181405048525 -24.631726983533966 70.37636281009705 0" fill="none" stroke="#F2EBDD" stroke-width="2.4" opacity="0.7"/><path d="M 273.8353354563115 279.98791120677384 q 24.990033905620194 -17.493023733934134 49.98006781124039 0 q 24.990033905620194 -17.493023733934134 49.98006781124039 0" fill="none" stroke="#F2EBDD" stroke-width="2.4" opacity="0.7"/><rect width="1920" height="1080" filter="url(#grain)" opacity="0.5"/><rect width="1920" height="1080" fill="none" stroke="#0D0F0E" stroke-width="80" opacity="0.25"/></svg>