<svg xmlns="http://www.w3.org/2000/svg" viewBox="0 0 1000 1250" preserveAspectRatio="xMidYMid slice" role="img"><defs><linearGradient id="sky" x1="0" y1="0" x2="0" y2="1"><stop offset="0" stop-color="#F2EBDD"/><stop offset="0.55" stop-color="#C9A968"/><stop offset="1" stop-color="#254A55"/></linearGradient><linearGradient id="glow" x1="0" y1="0" x2="0" y2="1"><stop offset="0" stop-color="#B08A4A"/><stop offset="1" stop-color="#C9A968"/></linearGradient><radialGradient id="sun" cx="0.7" cy="0.28" r="0.6"><stop offset="0" stop-color="#B08A4A" stop-opacity="0.85"/><stop offset="1" stop-color="#B08A4A" stop-opacity="0"/></radialGradient><filter id="grain"><feTurbulence type="fractalNoise" baseFrequency="0.9" numOctaves="2" stitchTiles="stitch"/><feColorMatrix type="saturate" values="0"/><feComponentTransfer><feFuncA type="linear" slope="0.06"/></feComponentTransfer><feComposite operator="over" in2="SourceGraphic"/></filter><filter id="soft"><feGaussianBlur stdDeviation="6"/></filter><filter id="soft2"><feGaussianBlur stdDeviation="22"/></filter></defs><rect width="1000" height="1250" fill="url(#sky)"/><rect width="1000" height="1250" fill="url(#sun)"/><rect y="775" width="1000" height="475" fill="#254A55" opacity="0.92"/><rect x="37.89926959525787" y="772" width="723" height="2.5" fill="#B08A4A" opacity="0.22" filter="url(#soft)"/><rect x="299.7385617487737" y="804" width="426" height="2.5" fill="#B08A4A" opacity="0.13" filter="url(#soft)"/><rect x="135.93972934144284" y="845" width="597" height="2.5" fill="#B08A4A" opacity="0.16" filter="url(#soft)"/><rect x="26.86968703217688" y="873" width="441" height="2.5" fill="#B08A4A" opacity="0.20" filter="url(#soft)"/><rect x="122.29915888828714" y="905" width="841" height="2.5" fill="#B08A4A" opacity="0.13" filter="url(#soft)"/><rect x="77.50701180957383" y="943" width="895" height="2.5" fill="#B08A4A" opacity="0.11" filter="url(#soft)"/><rect x="113.16154027222599" y="973" width="697" height="2.5" fill="#B08A4A" opacity="0.17" filter="url(#soft)"/><rect x="149.27416049702163" y="1011" width="690" height="2.5" fill="#B08A4A" opacity="0.18" filter="url(#soft)"/><rect x="42.64139370631392" y="1051" width="339" height="2.5" fill="#B08A4A" opacity="0.17" filter="url(#soft)"/><rect x="58.15619933949661" y="1086" width="868" height="2.5" fill="#B08A4A" opacity="0.16" filter="url(#soft)"/><rect x="264.28790564493147" y="1115" width="471" height="2.5" fill="#B08A4A" opacity="0.19" filter="url(#soft)"/><rect x="40.49271976567748" y="1146" width="759" height="2.5" fill="#B08A4A" opacity="0.21" filter="url(#soft)"/><rect x="210.64362456730865" y="1177" width="870" height="2.5" fill="#B08A4A" opacity="0.18" filter="url(#soft)"/><rect x="59.294446502904506" y="1220" width="390" height="2.5" fill="#B08A4A" opacity="0.16" filter="url(#soft)"/><path d="M 319.0481425587353 455.33005723594874 q 30.92995272913225 -21.650966910392572 61.8599054582645 0 q 30.92995272913225 -21.650966910392572 61.8599054582645 0" fill="none" stroke="#F2EBDD" stroke-width="2.2" opacity="0.7"/><path d="M 719.7054059445265 535.3327912774281 q 26.718974258894328 -18.703281981226027 53.437948517788655 0 q 26.718974258894328 -18.703281981226027 53.437948517788655 0" fill="none" stroke="#F2EBDD" stroke-width="2.2" opacity="0.7"/><path d="M 360.9417016112834 533.7200602793978 q 22.731306832221897 -15.911914782555327 45.46261366444379 0 q 22.731306832221897 -15.911914782555327 45.46261366444379 0" fill="none" stroke="#F2EBDD" stroke-width="2.2" opacity="0.7"/><path d="M 273.8539170234621 260.51674462715596 q 22.07636527740074 -15.453455694180517 44.15273055480148 0 q 22.07636527740074 -15.453455694180517 44.15273055480148 0" fill="none" stroke="#F2EBDD" stroke-width="2.2" opacity="0.7"/><rect y="705" width="1000" height="80" fill="#C9A968" opacity="0.6" filter="url(#soft2)"/><rect width="1000" height="1250" fill="#000" opacity="0" /><rect width="1000" height="1250" fill="url(#sky)" opacity="0" /><rect width="1000" height="1250" filter="url(#grain)" opacity="0.5"/><rect width="1000" height="1250" fill="none" stroke="#0D0F0E" stroke-width="60" opacity="0.35"/></svg>