<svg xmlns="http://www.w3.org/2000/svg" viewBox="0 0 1000 1250" preserveAspectRatio="xMidYMid slice" role="img"><defs><linearGradient id="sky" x1="0" y1="0" x2="0" y2="1"><stop offset="0" stop-color="#C9A968"/><stop offset="0.55" stop-color="#254A55"/><stop offset="1" stop-color="#1D2B24"/></linearGradient><linearGradient id="glow" x1="0" y1="0" x2="0" y2="1"><stop offset="0" stop-color="#B08A4A"/><stop offset="1" stop-color="#254A55"/></linearGradient><radialGradient id="sun" cx="0.7" cy="0.28" r="0.6"><stop offset="0" stop-color="#B08A4A" stop-opacity="0.85"/><stop offset="1" stop-color="#B08A4A" stop-opacity="0"/></radialGradient><filter id="grain"><feTurbulence type="fractalNoise" baseFrequency="0.9" numOctaves="2" stitchTiles="stitch"/><feColorMatrix type="saturate" values="0"/><feComponentTransfer><feFuncA type="linear" slope="0.06"/></feComponentTransfer><feComposite operator="over" in2="SourceGraphic"/></filter><filter id="soft"><feGaussianBlur stdDeviation="6"/></filter><filter id="soft2"><feGaussianBlur stdDeviation="22"/></filter></defs><rect width="1000" height="1250" fill="url(#sky)"/><rect width="1000" height="1250" fill="url(#sun)"/><rect y="775" width="1000" height="475" fill="#1D2B24" opacity="0.92"/><rect x="110.98654996442377" y="772" width="662" height="2.5" fill="#B08A4A" opacity="0.17" filter="url(#soft)"/><rect x="3.950397466462241" y="810" width="802" height="2.5" fill="#B08A4A" opacity="0.11" filter="url(#soft)"/><rect x="298.6934506531388" y="840" width="582" height="2.5" fill="#B08A4A" opacity="0.13" filter="url(#soft)"/><rect x="191.72044216324858" y="881" width="390" height="2.5" fill="#B08A4A" opacity="0.16" filter="url(#soft)"/><rect x="156.9543631149904" y="912" width="745" height="2.5" fill="#B08A4A" opacity="0.20" filter="url(#soft)"/><rect x="227.4690738860452" y="947" width="655" height="2.5" fill="#B08A4A" opacity="0.11" filter="url(#soft)"/><rect x="259.6581710936837" y="976" width="584" height="2.5" fill="#B08A4A" opacity="0.10" filter="url(#soft)"/><rect x="214.23884508336076" y="1015" width="853" height="2.5" fill="#B08A4A" opacity="0.21" filter="url(#soft)"/><rect x="133.38631681522818" y="1045" width="861" height="2.5" fill="#B08A4A" opacity="0.20" filter="url(#soft)"/><rect x="40.79065806020067" y="1085" width="430" height="2.5" fill="#B08A4A" opacity="0.11" filter="url(#soft)"/><rect x="187.99448726004118" y="1120" width="481" height="2.5" fill="#B08A4A" opacity="0.15" filter="url(#soft)"/><rect x="105.27314663105402" y="1148" width="651" height="2.5" fill="#B08A4A" opacity="0.15" filter="url(#soft)"/><rect x="204.59464099049" y="1183" width="857" height="2.5" fill="#B08A4A" opacity="0.21" filter="url(#soft)"/><rect x="201.38206264875546" y="1220" width="398" height="2.5" fill="#B08A4A" opacity="0.22" filter="url(#soft)"/><path d="M 795.2430631163429 532.7174951600739 q 27.105720055589174 -18.97400403891242 54.21144011117835 0 q 27.105720055589174 -18.97400403891242 54.21144011117835 0" fill="none" stroke="#F2EBDD" stroke-width="2.2" opacity="0.7"/><path d="M 619.6719141219394 315.97655739862444 q 31.30572688437367 -21.914008819061568 62.61145376874734 0 q 31.30572688437367 -21.914008819061568 62.61145376874734 0" fill="none" stroke="#F2EBDD" stroke-width="2.2" opacity="0.7"/><path d="M 521.4726466458993 339.0492068706891 q 19.01536923432367 -13.31075846402657 38.03073846864734 0 q 19.01536923432367 -13.31075846402657 38.03073846864734 0" fill="none" stroke="#F2EBDD" stroke-width="2.2" opacity="0.7"/><rect y="705" width="1000" height="80" fill="#254A55" opacity="0.6" filter="url(#soft2)"/><rect width="1000" height="1250" fill="#000" opacity="0" /><rect width="1000" height="1250" fill="url(#sky)" opacity="0" /><rect width="1000" height="1250" filter="url(#grain)" opacity="0.5"/><rect width="1000" height="1250" fill="none" stroke="#0D0F0E" stroke-width="60" opacity="0.35"/></svg>