<svg xmlns="http://www.w3.org/2000/svg" viewBox="0 0 1920 1080" preserveAspectRatio="xMidYMid slice" role="img"><defs><linearGradient id="sky" x1="0" y1="0" x2="0" y2="1"><stop offset="0" stop-color="#C9A968"/><stop offset="0.5" stop-color="#1D2B24"/><stop offset="1" stop-color="#0D0F0E"/></linearGradient><radialGradient id="sun" cx="0.72" cy="0.3" r="0.7"><stop offset="0" stop-color="#B08A4A" stop-opacity="0.8"/><stop offset="1" stop-color="#B08A4A" stop-opacity="0"/></radialGradient><filter id="grain"><feTurbulence type="fractalNoise" baseFrequency="0.85" numOctaves="2" stitchTiles="stitch"/><feColorMatrix type="saturate" values="0"/><feComponentTransfer><feFuncA type="linear" slope="0.05"/></feComponentTransfer><feComposite operator="over" in2="SourceGraphic"/></filter><filter id="soft2"><feGaussianBlur stdDeviation="26"/></filter><filter id="soft"><feGaussianBlur stdDeviation="7"/></filter></defs><rect width="1920" height="1080" fill="url(#sky)"/><rect width="1920" height="1080" fill="url(#sun)"/><polygon points="0,1080 0,382 153,312 259,343 402,360 492,461 607,346 709,385 818,330 983,401 1153,456 1306,325 1399,353 1530,313 1629,379 1788,363 1896,452 1920,1080" fill="#1D2B24" opacity="0.5"/><polygon points="0,1080 0,573 170,626 323,519 486,646 599,641 747,592 913,589 1063,510 1164,560 1330,565 1443,606 1594,618 1728,560 1858,628 1920,1080" fill="#0D0F0E" opacity="0.7"/><polygon points="0,1080 0,697 109,790 271,751 375,842 523,788 645,800 782,727 890,831 1059,698 1140,753 1282,779 1428,690 1561,781 1659,803 1752,826 1851,709 1920,1080" fill="#1D2B24" opacity="0.9"/><polygon points="1346.416507338199,0 1406.416507338199,0 1146.416507338199,1080 1026.416507338199,1080" fill="#B08A4A" opacity="0.06" filter="url(#soft2)"/><polygon points="1496.2414906185904,0 1556.2414906185904,0 1296.2414906185904,1080 1176.2414906185904,1080" fill="#B08A4A" opacity="0.06" filter="url(#soft2)"/><polygon points="1354.0200904832016,0 1414.0200904832016,0 1154.0200904832016,1080 1034.0200904832016,1080" fill="#B08A4A" opacity="0.06" filter="url(#soft2)"/><polygon points="364.27581317637186,0 424.27581317637186,0 164.27581317637186,1080 44.275813176371855,1080" fill="#B08A4A" opacity="0.06" filter="url(#soft2)"/><polygon points="1503.7467892817917,0 1563.7467892817917,0 1303.7467892817917,1080 1183.7467892817917,1080" fill="#B08A4A" opacity="0.06" filter="url(#soft2)"/><rect width="1920" height="1080" filter="url(#grain)" opacity="0.5"/><rect width="1920" height="1080" fill="none" stroke="#0D0F0E" stroke-width="80" opacity="0.25"/></svg>