<svg xmlns="http://www.w3.org/2000/svg" viewBox="0 0 1600 1000" preserveAspectRatio="xMidYMid slice" role="img"><defs><linearGradient id="sky" x1="0" y1="0" x2="0" y2="1"><stop offset="0" stop-color="#C9A968"/><stop offset="0.5" stop-color="#254A55"/><stop offset="1" stop-color="#1D2B24"/></linearGradient><radialGradient id="sun" cx="0.72" cy="0.3" r="0.7"><stop offset="0" stop-color="#B08A4A" stop-opacity="0.8"/><stop offset="1" stop-color="#B08A4A" stop-opacity="0"/></radialGradient><filter id="grain"><feTurbulence type="fractalNoise" baseFrequency="0.85" numOctaves="2" stitchTiles="stitch"/><feColorMatrix type="saturate" values="0"/><feComponentTransfer><feFuncA type="linear" slope="0.05"/></feComponentTransfer><feComposite operator="over" in2="SourceGraphic"/></filter><filter id="soft2"><feGaussianBlur stdDeviation="26"/></filter><filter id="soft"><feGaussianBlur stdDeviation="7"/></filter></defs><rect width="1600" height="1000" fill="url(#sky)"/><rect width="1600" height="1000" fill="url(#sun)"/><rect y="510" width="1600" height="120" fill="#254A55" opacity="0.5" filter="url(#soft2)"/><rect y="600" width="1600" height="400" fill="#1D2B24" opacity="0.92"/><rect x="61.89962053842948" y="597" width="896" height="2.5" fill="#B08A4A" opacity="0.10" filter="url(#soft)"/><rect x="240.9546086910449" y="614" width="1418" height="2.5" fill="#B08A4A" opacity="0.18" filter="url(#soft)"/><rect x="133.1569054141906" y="639" width="1037" height="2.5" fill="#B08A4A" opacity="0.11" filter="url(#soft)"/><rect x="63.70997545891808" y="651" width="714" height="2.5" fill="#B08A4A" opacity="0.19" filter="url(#soft)"/><rect x="483.9914080213941" y="676" width="1300" height="2.5" fill="#B08A4A" opacity="0.10" filter="url(#soft)"/><rect x="376.18536144787805" y="689" width="1232" height="2.5" fill="#B08A4A" opacity="0.18" filter="url(#soft)"/><rect x="52.0309515809531" y="713" width="1106" height="2.5" fill="#B08A4A" opacity="0.16" filter="url(#soft)"/><rect x="106.67410454447068" y="727" width="974" height="2.5" fill="#B08A4A" opacity="0.09" filter="url(#soft)"/><rect x="519.2905021110499" y="750" width="1048" height="2.5" fill="#B08A4A" opacity="0.12" filter="url(#soft)"/><rect x="343.4200810115349" y="768" width="1382" height="2.5" fill="#B08A4A" opacity="0.18" filter="url(#soft)"/><rect x="248.3676258790392" y="782" width="1099" height="2.5" fill="#B08A4A" opacity="0.13" filter="url(#soft)"/><rect x="183.0669578596434" y="797" width="1313" height="2.5" fill="#B08A4A" opacity="0.09" filter="url(#soft)"/><rect x="375.81044732394207" y="814" width="780" height="2.5" fill="#B08A4A" opacity="0.14" filter="url(#soft)"/><rect x="205.70595925329363" y="836" width="1497" height="2.5" fill="#B08A4A" opacity="0.10" filter="url(#soft)"/><rect x="121.6023697034378" y="854" width="1133" height="2.5" fill="#B08A4A" opacity="0.11" filter="url(#soft)"/><rect x="448.16560859427756" y="871" width="821" height="2.5" fill="#B08A4A" opacity="0.15" filter="url(#soft)"/><rect x="60.58766323071572" y="895" width="562" height="2.5" fill="#B08A4A" opacity="0.11" filter="url(#soft)"/><rect x="369.2592450772183" y="912" width="737" height="2.5" fill="#B08A4A" opacity="0.12" filter="url(#soft)"/><rect x="275.4112513021055" y="924" width="543" height="2.5" fill="#B08A4A" opacity="0.16" filter="url(#soft)"/><rect x="572.842559005407" y="949" width="1235" height="2.5" fill="#B08A4A" opacity="0.20" filter="url(#soft)"/><rect x="173.39788074050594" y="959" width="1466" height="2.5" fill="#B08A4A" opacity="0.17" filter="url(#soft)"/><rect x="565.9850204117888" y="981" width="1121" height="2.5" fill="#B08A4A" opacity="0.18" filter="url(#soft)"/><path d="M 1003.0485358002763 376.69840840780205 q 25.83990665323103 -18.08793465726172 51.67981330646206 0 q 25.83990665323103 -18.08793465726172 51.67981330646206 0" fill="none" stroke="#F2EBDD" stroke-width="2.4" opacity="0.7"/><path d="M 525.0615857252851 311.7381266623661 q 23.178093184725526 -16.224665229307867 46.35618636945105 0 q 23.178093184725526 -16.224665229307867 46.35618636945105 0" fill="none" stroke="#F2EBDD" stroke-width="2.4" opacity="0.7"/><path d="M 945.0170800999955 259.9314639706565 q 29.0957066669415 -20.36699466685905 58.191413333883 0 q 29.0957066669415 -20.36699466685905 58.191413333883 0" fill="none" stroke="#F2EBDD" stroke-width="2.4" opacity="0.7"/><path d="M 674.7480721687477 356.95679649561146 q 39.94370524441216 -27.96059367108851 79.88741048882432 0 q 39.94370524441216 -27.96059367108851 79.88741048882432 0" fill="none" stroke="#F2EBDD" stroke-width="2.4" opacity="0.7"/><rect width="1600" height="1000" filter="url(#grain)" opacity="0.5"/><rect width="1600" height="1000" fill="none" stroke="#0D0F0E" stroke-width="80" opacity="0.25"/></svg>