<svg xmlns="http://www.w3.org/2000/svg" viewBox="0 0 1920 1080" preserveAspectRatio="xMidYMid slice" role="img"><defs><linearGradient id="sky" x1="0" y1="0" x2="0" y2="1"><stop offset="0" stop-color="#254A55"/><stop offset="0.5" stop-color="#1D2B24"/><stop offset="1" stop-color="#0D0F0E"/></linearGradient><radialGradient id="sun" cx="0.72" cy="0.3" r="0.7"><stop offset="0" stop-color="#C9A968" stop-opacity="0.8"/><stop offset="1" stop-color="#C9A968" stop-opacity="0"/></radialGradient><filter id="grain"><feTurbulence type="fractalNoise" baseFrequency="0.85" numOctaves="2" stitchTiles="stitch"/><feColorMatrix type="saturate" values="0"/><feComponentTransfer><feFuncA type="linear" slope="0.05"/></feComponentTransfer><feComposite operator="over" in2="SourceGraphic"/></filter><filter id="soft2"><feGaussianBlur stdDeviation="26"/></filter><filter id="soft"><feGaussianBlur stdDeviation="7"/></filter></defs><rect width="1920" height="1080" fill="url(#sky)"/><rect width="1920" height="1080" fill="url(#sun)"/><rect y="558" width="1920" height="120" fill="#1D2B24" opacity="0.5" filter="url(#soft2)"/><rect y="648" width="1920" height="432" fill="#0D0F0E" opacity="0.92"/><rect x="569.1634667959063" y="652" width="1392" height="2.5" fill="#C9A968" opacity="0.09" filter="url(#soft)"/><rect x="254.24844494097684" y="669" width="1030" height="2.5" fill="#C9A968" opacity="0.10" filter="url(#soft)"/><rect x="266.7441443238078" y="684" width="721" height="2.5" fill="#C9A968" opacity="0.13" filter="url(#soft)"/><rect x="51.464451765750695" y="702" width="1210" height="2.5" fill="#C9A968" opacity="0.13" filter="url(#soft)"/><rect x="440.5254472700973" y="727" width="859" height="2.5" fill="#C9A968" opacity="0.09" filter="url(#soft)"/><rect x="353.4740896632029" y="749" width="1158" height="2.5" fill="#C9A968" opacity="0.15" filter="url(#soft)"/><rect x="217.67551108686507" y="771" width="1260" height="2.5" fill="#C9A968" opacity="0.12" filter="url(#soft)"/><rect x="396.31926555019083" y="786" width="814" height="2.5" fill="#C9A968" opacity="0.09" filter="url(#soft)"/><rect x="430.74840225167947" y="805" width="1091" height="2.5" fill="#C9A968" opacity="0.13" filter="url(#soft)"/><rect x="109.2175295904535" y="826" width="679" height="2.5" fill="#C9A968" opacity="0.12" filter="url(#soft)"/><rect x="117.36471168234002" y="848" width="614" height="2.5" fill="#C9A968" opacity="0.09" filter="url(#soft)"/><rect x="165.3386769000914" y="859" width="1073" height="2.5" fill="#C9A968" opacity="0.18" filter="url(#soft)"/><rect x="221.79235920365952" y="882" width="788" height="2.5" fill="#C9A968" opacity="0.12" filter="url(#soft)"/><rect x="329.3960819466199" y="906" width="758" height="2.5" fill="#C9A968" opacity="0.09" filter="url(#soft)"/><rect x="424.2860725302146" y="926" width="1329" height="2.5" fill="#C9A968" opacity="0.11" filter="url(#soft)"/><rect x="551.2459058105082" y="943" width="1093" height="2.5" fill="#C9A968" opacity="0.19" filter="url(#soft)"/><rect x="585.0038813074492" y="959" width="556" height="2.5" fill="#C9A968" opacity="0.13" filter="url(#soft)"/><rect x="485.7379595591114" y="977" width="1187" height="2.5" fill="#C9A968" opacity="0.20" filter="url(#soft)"/><rect x="569.2968698898256" y="1005" width="1039" height="2.5" fill="#C9A968" opacity="0.20" filter="url(#soft)"/><rect x="207.6855317471998" y="1024" width="1474" height="2.5" fill="#C9A968" opacity="0.13" filter="url(#soft)"/><rect x="45.526243437752846" y="1038" width="966" height="2.5" fill="#C9A968" opacity="0.10" filter="url(#soft)"/><rect x="570.2722115619948" y="1065" width="716" height="2.5" fill="#C9A968" opacity="0.09" filter="url(#soft)"/><path d="M 1044.3540857775802 358.4888234285328 q 31.159783126837425 -21.811848188786197 62.31956625367485 0 q 31.159783126837425 -21.811848188786197 62.31956625367485 0" fill="none" stroke="#F2EBDD" stroke-width="2.4" opacity="0.7"/><path d="M 510.23013687864733 218.16264232552186 q 23.298613563309612 -16.30902949431673 46.597227126619224 0 q 23.298613563309612 -16.30902949431673 46.597227126619224 0" fill="none" stroke="#F2EBDD" stroke-width="2.4" opacity="0.7"/><path d="M 215.31271769181103 375.4331320512565 q 33.1318493026985 -23.192294511888946 66.263698605397 0 q 33.1318493026985 -23.192294511888946 66.263698605397 0" fill="none" stroke="#F2EBDD" stroke-width="2.4" opacity="0.7"/><path d="M 738.7967628082836 233.62452397268385 q 32.34012256380086 -22.6380857946606 64.68024512760172 0 q 32.34012256380086 -22.6380857946606 64.68024512760172 0" fill="none" stroke="#F2EBDD" stroke-width="2.4" opacity="0.7"/><path d="M 1253.6225105554524 210.93105233805068 q 39.21226886359149 -27.448588204514042 78.42453772718298 0 q 39.21226886359149 -27.448588204514042 78.42453772718298 0" fill="none" stroke="#F2EBDD" stroke-width="2.4" opacity="0.7"/><rect width="1920" height="1080" filter="url(#grain)" opacity="0.5"/><rect width="1920" height="1080" fill="none" stroke="#0D0F0E" stroke-width="80" opacity="0.25"/></svg>