<svg xmlns="http://www.w3.org/2000/svg" viewBox="0 0 1200 1500" preserveAspectRatio="xMidYMid slice" role="img"><defs><linearGradient id="sky" x1="0" y1="0" x2="0" y2="1"><stop offset="0" stop-color="#C9A968"/><stop offset="0.5" stop-color="#7A4E2D"/><stop offset="1" stop-color="#1D2B24"/></linearGradient><radialGradient id="sun" cx="0.72" cy="0.3" r="0.7"><stop offset="0" stop-color="#B08A4A" stop-opacity="0.8"/><stop offset="1" stop-color="#B08A4A" stop-opacity="0"/></radialGradient><filter id="grain"><feTurbulence type="fractalNoise" baseFrequency="0.85" numOctaves="2" stitchTiles="stitch"/><feColorMatrix type="saturate" values="0"/><feComponentTransfer><feFuncA type="linear" slope="0.05"/></feComponentTransfer><feComposite operator="over" in2="SourceGraphic"/></filter><filter id="soft2"><feGaussianBlur stdDeviation="26"/></filter><filter id="soft"><feGaussianBlur stdDeviation="7"/></filter></defs><rect width="1200" height="1500" fill="url(#sky)"/><rect width="1200" height="1500" fill="url(#sun)"/><rect y="810" width="1200" height="120" fill="#7A4E2D" opacity="0.5" filter="url(#soft2)"/><rect y="900" width="1200" height="600" fill="#1D2B24" opacity="0.92"/><rect x="223.98715883702522" y="900" width="639" height="2.5" fill="#B08A4A" opacity="0.18" filter="url(#soft)"/><rect x="301.669248031325" y="922" width="1398" height="2.5" fill="#B08A4A" opacity="0.09" filter="url(#soft)"/><rect x="369.9900256101711" y="955" width="541" height="2.5" fill="#B08A4A" opacity="0.13" filter="url(#soft)"/><rect x="271.21255227001546" y="984" width="1225" height="2.5" fill="#B08A4A" opacity="0.10" filter="url(#soft)"/><rect x="66.5685167868088" y="1006" width="1006" height="2.5" fill="#B08A4A" opacity="0.19" filter="url(#soft)"/><rect x="464.52568034130667" y="1037" width="884" height="2.5" fill="#B08A4A" opacity="0.17" filter="url(#soft)"/><rect x="174.7068473918443" y="1060" width="1174" height="2.5" fill="#B08A4A" opacity="0.17" filter="url(#soft)"/><rect x="52.627429839582305" y="1090" width="767" height="2.5" fill="#B08A4A" opacity="0.11" filter="url(#soft)"/><rect x="485.7064204358818" y="1116" width="699" height="2.5" fill="#B08A4A" opacity="0.19" filter="url(#soft)"/><rect x="32.873613666650826" y="1149" width="879" height="2.5" fill="#B08A4A" opacity="0.14" filter="url(#soft)"/><rect x="254.83521105155464" y="1168" width="1406" height="2.5" fill="#B08A4A" opacity="0.09" filter="url(#soft)"/><rect x="72.73946448130819" y="1201" width="1079" height="2.5" fill="#B08A4A" opacity="0.19" filter="url(#soft)"/><rect x="4.951536174752791" y="1224" width="584" height="2.5" fill="#B08A4A" opacity="0.14" filter="url(#soft)"/><rect x="50.901937065920855" y="1250" width="997" height="2.5" fill="#B08A4A" opacity="0.19" filter="url(#soft)"/><rect x="238.88089295699214" y="1281" width="1139" height="2.5" fill="#B08A4A" opacity="0.09" filter="url(#soft)"/><rect x="103.53311571351644" y="1310" width="1109" height="2.5" fill="#B08A4A" opacity="0.19" filter="url(#soft)"/><rect x="333.0364317442103" y="1332" width="1106" height="2.5" fill="#B08A4A" opacity="0.10" filter="url(#soft)"/><rect x="596.9303439942673" y="1361" width="1498" height="2.5" fill="#B08A4A" opacity="0.09" filter="url(#soft)"/><rect x="570.5536718941123" y="1393" width="737" height="2.5" fill="#B08A4A" opacity="0.15" filter="url(#soft)"/><rect x="219.568114782866" y="1414" width="1174" height="2.5" fill="#B08A4A" opacity="0.15" filter="url(#soft)"/><rect x="52.04346865730398" y="1448" width="847" height="2.5" fill="#B08A4A" opacity="0.18" filter="url(#soft)"/><rect x="270.78000251962516" y="1474" width="902" height="2.5" fill="#B08A4A" opacity="0.20" filter="url(#soft)"/><path d="M 1169.4091016342982 395.0515988751653 q 32.15493549834373 -22.50845484884061 64.30987099668747 0 q 32.15493549834373 -22.50845484884061 64.30987099668747 0" fill="none" stroke="#F2EBDD" stroke-width="2.4" opacity="0.7"/><path d="M 200.79941796991403 306.8635152312441 q 24.43411818802572 -17.103882731618004 48.86823637605144 0 q 24.43411818802572 -17.103882731618004 48.86823637605144 0" fill="none" stroke="#F2EBDD" stroke-width="2.4" opacity="0.7"/><path d="M 550.5285145500482 538.850643704157 q 26.14307055317017 -18.30014938721912 52.28614110634034 0 q 26.14307055317017 -18.30014938721912 52.28614110634034 0" fill="none" stroke="#F2EBDD" stroke-width="2.4" opacity="0.7"/><path d="M 570.353015020417 440.77639049852337 q 21.103274378983837 -14.772292065288685 42.206548757967674 0 q 21.103274378983837 -14.772292065288685 42.206548757967674 0" fill="none" stroke="#F2EBDD" stroke-width="2.4" opacity="0.7"/><path d="M 695.7963698725232 454.9434280879158 q 28.572764619787126 -20.00093523385099 57.14552923957425 0 q 28.572764619787126 -20.00093523385099 57.14552923957425 0" fill="none" stroke="#F2EBDD" stroke-width="2.4" opacity="0.7"/><rect width="1200" height="1500" filter="url(#grain)" opacity="0.5"/><rect width="1200" height="1500" fill="none" stroke="#0D0F0E" stroke-width="80" opacity="0.25"/></svg>