<svg xmlns="http://www.w3.org/2000/svg" viewBox="0 0 1200 1500" preserveAspectRatio="xMidYMid slice" role="img"><defs><linearGradient id="sky" x1="0" y1="0" x2="0" y2="1"><stop offset="0" stop-color="#7A4E2D"/><stop offset="0.5" stop-color="#1D2B24"/><stop offset="1" stop-color="#0D0F0E"/></linearGradient><radialGradient id="sun" cx="0.72" cy="0.3" r="0.7"><stop offset="0" stop-color="#C9A968" stop-opacity="0.8"/><stop offset="1" stop-color="#C9A968" stop-opacity="0"/></radialGradient><filter id="grain"><feTurbulence type="fractalNoise" baseFrequency="0.85" numOctaves="2" stitchTiles="stitch"/><feColorMatrix type="saturate" values="0"/><feComponentTransfer><feFuncA type="linear" slope="0.05"/></feComponentTransfer><feComposite operator="over" in2="SourceGraphic"/></filter><filter id="soft2"><feGaussianBlur stdDeviation="26"/></filter><filter id="soft"><feGaussianBlur stdDeviation="7"/></filter></defs><rect width="1200" height="1500" fill="url(#sky)"/><rect width="1200" height="1500" fill="url(#sun)"/><polygon points="0,1500 0,653 90,592 232,632 322,617 470,631 617,549 709,569 829,588 999,640 1081,504 1197,623 1200,1500" fill="#1D2B24" opacity="0.5"/><polygon points="0,1500 0,851 166,876 265,816 395,757 550,853 649,776 818,905 964,771 1102,875 1200,1500" fill="#0D0F0E" opacity="0.7"/><polygon points="0,1500 0,1063 97,1077 197,1173 307,1126 423,1076 578,1026 746,1021 897,1130 993,1080 1122,1072 1200,1500" fill="#1D2B24" opacity="0.9"/><polygon points="550.6283584042263,0 610.6283584042263,0 350.62835840422633,1500 230.62835840422633,1500" fill="#C9A968" opacity="0.06" filter="url(#soft2)"/><polygon points="1497.322260827256,0 1557.322260827256,0 1297.322260827256,1500 1177.322260827256,1500" fill="#C9A968" opacity="0.06" filter="url(#soft2)"/><polygon points="1081.8063988324313,0 1141.8063988324313,0 881.8063988324313,1500 761.8063988324313,1500" fill="#C9A968" opacity="0.06" filter="url(#soft2)"/><polygon points="1203.9777110824766,0 1263.9777110824766,0 1003.9777110824766,1500 883.9777110824766,1500" fill="#C9A968" opacity="0.06" filter="url(#soft2)"/><polygon points="424.33876224194074,0 484.33876224194074,0 224.33876224194074,1500 104.33876224194074,1500" fill="#C9A968" opacity="0.06" filter="url(#soft2)"/><rect width="1200" height="1500" filter="url(#grain)" opacity="0.5"/><rect width="1200" height="1500" fill="none" stroke="#0D0F0E" stroke-width="80" opacity="0.25"/></svg>